<?xml version="1.0" encoding="utf-8"?>
<!-- Generator: Adobe Illustrator 28.2.0, SVG Export Plug-In . SVG Version: 6.00 Build 0)  -->
<svg version="1.1" xmlns="http://www.w3.org/2000/svg" xmlns:xlink="http://www.w3.org/1999/xlink" x="0px" y="0px"
	 viewBox="0 0 820 230" style="enable-background:new 0 0 820 230;" xml:space="preserve">
<style type="text/css">
	.st0{fill:#86895C;stroke:#FFFFFF;stroke-miterlimit:10;}
	.st1{fill:#FFFFFF;stroke:#000000;stroke-miterlimit:10;}
	.st2{fill:#FFFFFF;}
	.st3{font-family:'MyriadPro-Regular';}
	.st4{font-size:12px;}
	.st5{fill:#99A6AA;}
	.st6{fill:url(#SVGID_1_);}
	.st7{fill:#2C252B;}
	.st8{fill:#3B4E60;}
	.st9{fill:#FFFFFD;}
	.st10{fill:url(#SVGID_00000109710175844691612150000010322481409966354865_);}
	.st11{fill:#43678B;}
	.st12{fill:#121418;}
	.st13{fill:#1F364F;}
	.st14{fill:url(#SVGID_00000010278677143891365290000014072647329222046610_);}
	.st15{fill:url(#SVGID_00000017491035298885833540000005294083873921273755_);}
	.st16{fill:url(#SVGID_00000077318021820184725690000015334477717509921705_);}
	.st17{fill:#577439;}
	.st18{fill:#91B353;}
	.st19{fill:url(#SVGID_00000113350557895671798020000014655776290568194737_);}
	.st20{fill:url(#SVGID_00000121258681188400990860000004542861705475795630_);}
	.st21{fill:url(#SVGID_00000180326787888611458700000000978439360502390935_);}
	.st22{fill:url(#SVGID_00000096768261587541689750000013942040058331547047_);}
	.st23{fill:#6788A5;}
</style>
<g id="Capa_1">
</g>
<g id="Capa_2">
	<rect x="0" class="st0" width="820" height="230"/>
</g>
<g id="Capa_3">
	<rect x="631.84" class="st1" width="117.6" height="230"/>
	<text transform="matrix(1 0 0 1 101.3984 36.1943)"><tspan x="0" y="0" class="st2 st3 st4">&quot;Lorem ipsum dolor sit amet, consectetur adipiscing elit, sed do eiusmod tempor </tspan><tspan x="0" y="14.4" class="st2 st3 st4">incididunt ut labore et dolore magna aliqua. Ut enim ad minim veniam, quis nos</tspan><tspan x="0" y="28.8" class="st2 st3 st4">trud exercitation ullamco laboris nisi ut aliquip ex ea commodo consequat. Duis </tspan><tspan x="0" y="43.2" class="st2 st3 st4">aute irure dolor in reprehenderit in voluptate velit esse cillum dolore eu fugiat </tspan><tspan x="0" y="57.6" class="st2 st3 st4">nulla pariatur. Excepteur sint occaecat cupidatat non proident, sunt in culpa qui </tspan><tspan x="0" y="72" class="st2 st3 st4">officia deserunt mollit anim id est laborum.&quot;</tspan><tspan x="0" y="100.8" class="st2 st3 st4">&quot;Lorem ipsum dolor sit amet, consectetur adipiscing elit, sed do eiusmod tempor </tspan><tspan x="0" y="115.2" class="st2 st3 st4">incididunt ut labore et dolore magna aliqua. Ut enim ad minim veniam, quis nost</tspan><tspan x="0" y="129.6" class="st2 st3 st4">rud exercitation ullamco laboris nisi ut aliquip ex ea commodo consequat. Duis </tspan><tspan x="0" y="144" class="st2 st3 st4">+aute irure dolor in reprehenderit in voluptate velit esse cillum dolore eu fugiat </tspan><tspan x="0" y="158.4" class="st2 st3 st4">nulla pariatur. Excepteur sint occaecat cupidatat non proident, sunt in culpa qui </tspan><tspan x="0" y="172.8" class="st2 st3 st4">officia deserunt mollit anim id est laborum.&quot;</tspan></text>
	<g>
		<path class="st5" d="M632.16,44.38h14.25h89.93h12.99h0.11v134.43v18.79v7.2h-0.12h-0.17h-43.89H687.4h-55.25v-72.44v-0.89V44.38z
			"/>
		
			<linearGradient id="SVGID_1_" gradientUnits="userSpaceOnUse" x1="674.9097" y1="112.4303" x2="617.6777" y2="64.7702" gradientTransform="matrix(1 0 0 -1 14 269)">
			<stop  offset="0" style="stop-color:#30353A"/>
			<stop  offset="1" style="stop-color:#E8F5F8"/>
		</linearGradient>
		<path class="st6" d="M632.16,131.47c0.73,0.05,1.47,0.09,2.2,0.18c1.11-0.06,2.27,0.16,3.39,0.25c3.14,0.26,6.27,0.57,9.4,0.91
			c1.33,0.15,2.67,0.26,3.98,0.51c2.07,0.18,4.15,0.54,6.21,0.87c0.74,0.12,1.61,0.4,2.35,0.39c2.86,0.66,5.72,1.2,8.57,1.98
			c0.43,0.12,2.26,0.82,2.6,0.64c0.01,0.02,0.02,0.05,0.04,0.07c0.69,1.4,1.15,3.04,1.78,4.5c1.38,3.19,3.3,6.32,5.51,8.5
			c0.91,0.9,1.89,1.64,2.84,2.47c0.43,0.28,0.86,0.57,1.3,0.83c-0.07,3-0.02,6.01-0.02,9.01c0,1.24,0.09,2.61-0.02,3.84
			c-0.01,1.05-0.02,2.1-0.01,3.16l0,17.65c0,3.17-0.03,6.35,0.02,9.52c0.8,0.15,2.31,0.79,2.99,0.69c0.7-0.1,1.4-0.5,2.09-0.73
			c0.2-0.08,0.4-0.15,0.61-0.21c0.89-0.43,1.8-0.84,2.72-1.17c1.85,0.93,3.74,1.66,5.62,2.47c0.76,0.33,1.5,0.72,2.26,1.05
			c0.49-0.16,0.97-0.33,1.46-0.42c1.94,0.17,3.88,0.2,5.82,0.29c3.52,0.19,7.05,0.33,10.57,0.4l7.14,0.06
			c0.02,0.01,0.03,0.03,0.05,0.04c0.23,0.14,0.62,0.01,0.88,0.06c-0.08,0.01-0.14-0.01-0.22-0.02l0.03,0.03
			c-6.1,0.03-12.19-0.11-18.29-0.44c-0.26-0.01-0.99-0.13-1.17,0.14c-0.09,0.14-0.14,0.34-0.13,0.54c0.03,0.4,0.29,0.76,0.31,1.14
			c0.03,0.57-0.32,1.21-0.27,1.71c0.02,0.2,0.22,0.52,0.29,0.71c0.05,0.14,0.13,0.38,0.07,0.54c-0.11,0.29-0.17,0.46-0.23,0.79
			c-0.11,0.08-0.19,0.1-0.32,0.12c0.09,0.05,0.13,0.06,0.22,0.08c0.17,0.03,0.32,0.1,0.48,0.17H687.4h-55.25v-72.44V131.47z"/>
		<path class="st7" d="M681.02,152.75c0.43,0.28,0.86,0.57,1.3,0.83c-0.07,3-0.02,6.01-0.02,9.01c0,1.24,0.09,2.61-0.02,3.84
			c-0.92,0.48-1.85,1-2.78,1.43c0.05-0.06,0.14-0.15,0.18-0.23c0.51-1.09,0.45-7.54,0.65-9.31c0.11-0.95,0.26-2.4,0.65-3.2
			c0.11-0.22,0.28-0.38,0.43-0.53c0-0.54-0.08-0.87,0.2-1.29C681.53,153.09,681.15,153.05,681.02,152.75z"/>
		<path class="st8" d="M679.5,167.86c0.94-0.43,1.86-0.95,2.78-1.43c-0.01,1.05-0.02,2.1-0.01,3.16c-2.92,0.96-5.82,1.86-8.78,2.58
			c-1.05,0.25-2.14,0.58-3.21,0.72c-0.03-0.05-0.04-0.11-0.06-0.17c0.12-0.19,0.28-0.28,0.45-0.38c1.16-0.66,2.39-1.16,3.57-1.73
			C676,169.74,677.76,168.82,679.5,167.86z"/>
		<path class="st9" d="M632.16,131.47c0.73,0.05,1.47,0.09,2.2,0.18c-0.02,0.01-0.04,0.01-0.05,0.02c-0.68,0.18-1.33-0.14-2-0.05
			c0.01,0.04,0.02,0.09,0.03,0.13c0.04,0.16,0.02,0.27,0,0.44c-0.08,0.12-0.06,0.13-0.18,0.17V131.47z"/>
		
			<linearGradient id="SVGID_00000100365344991575288710000009431989752686819507_" gradientUnits="userSpaceOnUse" x1="732.9432" y1="99.7066" x2="684.4413" y2="94.9889" gradientTransform="matrix(1 0 0 -1 14 269)">
			<stop  offset="0" style="stop-color:#2B465B"/>
			<stop  offset="1" style="stop-color:#6A8799"/>
		</linearGradient>
		<path style="fill:url(#SVGID_00000100365344991575288710000009431989752686819507_);" d="M728.77,141.55
			c0.5-0.19,1.01-0.51,1.49-0.78c0.87-0.49,1.74-0.97,2.62-1.44c2.37-1.24,4.74-2.51,7.15-3.63c1.58-0.73,3.15-1.44,4.79-1.82
			c1.48-0.34,2.97-0.4,4.47-0.48c0,1.22-0.04,2.45,0.02,3.67l0.01,16.36v16.51c0,2.91-0.08,5.87,0.02,8.77l0.09,0.11v18.79v7.2
			h-0.12h-0.17h-43.89c-0.16-0.07-0.31-0.13-0.48-0.17c-0.09-0.02-0.13-0.03-0.22-0.08c0.12-0.02,0.21-0.03,0.32-0.12
			c0.06-0.33,0.12-0.51,0.23-0.79c0.06-0.16-0.02-0.4-0.07-0.54c-0.07-0.19-0.27-0.51-0.29-0.71c-0.04-0.5,0.31-1.14,0.27-1.71
			c-0.02-0.38-0.29-0.74-0.31-1.14c-0.01-0.19,0.03-0.39,0.13-0.54c0.18-0.27,0.91-0.15,1.17-0.14c6.09,0.33,12.19,0.48,18.29,0.44
			l-0.03-0.03c0.08,0.02,0.14,0.03,0.22,0.02c-0.26-0.05-0.65,0.08-0.88-0.06c-0.02-0.01-0.03-0.03-0.05-0.04l-7.14-0.06
			c-3.53-0.07-7.05-0.2-10.57-0.4c-1.94-0.09-3.89-0.12-5.82-0.29c0.13-1.08,0.03-2.4,0.04-3.51c0.01-1.8,0.06-3.62,0.05-5.42
			c-0.15-0.6-0.05-5.78-0.05-6.71l0-19.01c-0.06-3.25-0.03-6.53-0.04-9.78c0-2.18-0.08-4.42,0.03-6.59
			c1.93,0.34,3.84,0.95,5.74,1.52c2.07,0.63,4.17,1.25,6.17,2.17c1.63-0.88,3.23-1.89,4.85-2.8
			C720.82,146.11,724.8,143.85,728.77,141.55z"/>
		<path class="st7" d="M744.62,179.34c1.57-0.09,3.17-0.43,4.73-0.64l0.09,0.11v18.79v7.2h-0.12h-0.17h-43.89
			c-0.16-0.07-0.31-0.13-0.48-0.17c-0.09-0.02-0.13-0.03-0.22-0.08c0.12-0.02,0.21-0.03,0.32-0.12c0.06-0.33,0.12-0.51,0.23-0.79
			c0.06-0.16-0.02-0.4-0.07-0.54c-0.07-0.19-0.27-0.51-0.29-0.71c-0.04-0.5,0.31-1.14,0.27-1.71c-0.02-0.38-0.29-0.74-0.31-1.14
			c-0.01-0.19,0.03-0.39,0.13-0.54c0.18-0.27,0.91-0.15,1.17-0.14c6.09,0.33,12.19,0.48,18.29,0.44l-0.03-0.03
			c0.08,0.02,0.14,0.03,0.22,0.02c-0.26-0.05-0.65,0.08-0.88-0.06c-0.02-0.01-0.03-0.03-0.05-0.04l-7.14-0.06
			c-3.53-0.07-7.05-0.2-10.57-0.4c-1.94-0.09-3.89-0.12-5.82-0.29c0.13-1.08,0.03-2.4,0.04-3.51c0.01-1.8,0.06-3.62,0.05-5.42
			c5.15-1.72,10.32-3.24,15.53-4.57c5.21-1.33,10.44-2.47,15.69-3.42C735.75,180.69,740.18,179.78,744.62,179.34z"/>
		<path class="st11" d="M723.57,199.19c5.74,0.03,11.47-0.12,17.2-0.45c1.34-0.08,2.66-0.23,3.99-0.35
			c0.37-0.03,0.75,0.05,1.12,0.03c0.19-0.01,0.39-0.1,0.59-0.12c0.82-0.11,1.9-0.32,2.71-0.27c0,2.22-0.05,4.47-0.04,6.69
			c0,0.03,0.01,0.06,0.01,0.08h-43.89c-0.16-0.07-0.31-0.13-0.48-0.17c-0.09-0.02-0.13-0.03-0.22-0.08
			c0.12-0.02,0.21-0.03,0.32-0.12c0.06-0.33,0.12-0.51,0.23-0.79c0.06-0.16-0.02-0.4-0.07-0.54c-0.07-0.19-0.27-0.51-0.29-0.71
			c-0.04-0.5,0.31-1.14,0.27-1.71c-0.02-0.38-0.29-0.74-0.31-1.14c-0.01-0.19,0.03-0.39,0.13-0.54c0.18-0.27,0.91-0.15,1.17-0.14
			c6.09,0.33,12.19,0.48,18.29,0.44l-0.03-0.03c0.08,0.02,0.14,0.03,0.22,0.02c-0.26-0.05-0.65,0.08-0.88-0.06
			C723.6,199.22,723.59,199.21,723.57,199.19z"/>
		<path class="st9" d="M749.44,197.6v7.2h-0.12C749.32,203.89,749.2,198.06,749.44,197.6z"/>
		<path class="st12" d="M728.77,141.55c0.5-0.19,1.01-0.51,1.49-0.78c0.87-0.49,1.74-0.97,2.62-1.44c2.37-1.24,4.74-2.51,7.15-3.63
			c1.58-0.73,3.15-1.44,4.79-1.82c1.48-0.34,2.97-0.4,4.47-0.48c0,1.22-0.04,2.45,0.02,3.67l0.01,16.36l-3.12,0.24
			c-0.54,0.04-1.13,0.02-1.66,0.15c-3.18,0.06-6.4,0.58-9.56,1c-1.48,0.18-2.95,0.38-4.43,0.6c-1.47,0.23-2.95,0.48-4.41,0.75
			c-1.47,0.28-2.94,0.58-4.4,0.9c-1.46,0.33-2.92,0.68-4.38,1.05c-1.46,0.38-2.91,0.78-4.36,1.2c-1.45,0.43-2.9,0.88-4.34,1.35
			c-1.44,0.47-2.88,0.97-4.31,1.5c-1.43,0.52-2.86,1.07-4.28,1.64c-0.06-3.25-0.03-6.53-0.04-9.78c0-2.18-0.08-4.42,0.03-6.59
			c1.93,0.34,3.84,0.95,5.74,1.52c2.07,0.63,4.17,1.25,6.17,2.17c1.63-0.88,3.23-1.89,4.85-2.8
			C720.82,146.11,724.8,143.85,728.77,141.55z"/>
		<path class="st13" d="M744.54,153.8c0.53-0.13,1.12-0.11,1.66-0.15l3.12-0.24v16.51c0,2.91-0.08,5.87,0.02,8.77
			c-1.56,0.22-3.16,0.55-4.73,0.64c0.18-0.89,0.03-1.77-0.01-2.67c-0.03-0.62-0.01-1.24-0.05-1.86c-0.05-0.92-0.17-1.84-0.21-2.76
			c-0.04-0.99,0.02-2.01,0.03-3c0.01-0.7-0.04-1.42-0.01-2.12c0.01-0.32,0.15-0.6,0.16-0.92c0.02-0.87-0.11-1.8-0.14-2.68
			c-0.05-1.7,0.02-3.35-0.1-5.05c-0.02-0.28-0.01-0.44,0.05-0.71c0.09-0.38,0.1-0.77,0.18-1.15c0.1-0.46,0.7-2.26,0.64-2.58
			C744.95,153.83,744.75,153.82,744.54,153.8z"/>
		
			<linearGradient id="SVGID_00000169558073753797688800000006735618872027395226_" gradientUnits="userSpaceOnUse" x1="658.6098" y1="138.5146" x2="710.2732" y2="150.4855" gradientTransform="matrix(1 0 0 -1 14 269)">
			<stop  offset="0" style="stop-color:#1D1B1E"/>
			<stop  offset="1" style="stop-color:#20251C"/>
		</linearGradient>
		<path style="fill:url(#SVGID_00000169558073753797688800000006735618872027395226_);" d="M690.29,51.98
			c2.14-0.35,4.23,0.54,5.92,2.36c2.17,2.33,3.4,5.78,3.72,9.49c0.2,2.36,0.13,4.79,0.13,7.16l-0.01,11.15l-0.01,26.1
			c0.01,4.46-0.02,8.92,0.04,13.38c3.01-2.37,4.62-6.79,5.49-11.25c0.76-3.88,1.17-7.73,1.36-11.73c0.03-0.04,0.09-0.07,0.12-0.1
			c0.05-0.1,0.04-0.06,0.05-0.17c0.01-0.27,0.03-0.51,0.07-0.78c0.09-3.89-0.08-8.13,1.8-11.33c0.32-0.54,0.75-0.95,1.11-1.44
			c0.2-0.31,0.72-0.44,1-0.51c1.55-0.38,2.92-0.23,4.25,1.03c1.66,1.57,2.55,4.21,2.89,6.87c0.31,2.45,0.14,5.05,0.01,7.52
			c-0.45,8.17-1.7,16.29-4.18,23.77c-0.69,2.07-1.42,4.07-2.38,5.93c-1.91,3.71-4.42,6.46-7.75,7.25c-1.25,0.3-2.61,0.37-3.87,0.08
			c0.01,3.54,0.1,7.12,0.01,10.65c-0.11,2.17-0.04,4.42-0.03,6.59c0.01,3.26-0.02,6.53,0.04,9.78l0,19.01c0,0.93-0.1,6.11,0.05,6.71
			c0.02,1.8-0.04,3.62-0.05,5.42c0,1.11,0.09,2.43-0.04,3.51c-0.5,0.09-0.98,0.26-1.46,0.42c-0.76-0.33-1.5-0.73-2.26-1.05
			c-1.88-0.81-3.77-1.53-5.62-2.47c-0.91,0.33-1.82,0.74-2.72,1.17c-0.2,0.06-0.4,0.13-0.61,0.21l0.01-0.07
			c-0.17-0.01-0.34,0-0.5,0.01c-0.13-0.59-0.06-3.18-0.07-3.93l-0.1-12.88c-0.16-13.04-0.27-26.07-0.33-39.11l0.01-48.1
			c-0.01-2.25,0.01-4.51,0.04-6.76c0.01-0.95,0.11-1.97,0.05-2.91c-0.02-0.33-0.12-0.67-0.19-0.98c0-0.68,0.02-1.34,0.08-2.01
			c-0.09,0.02-0.17,0.03-0.26,0.03c-0.25,0.01-0.39-0.2-0.56-0.43c0.01-0.61,0.01-1.22-0.02-1.83c-0.03-1.16,0.03-2.33,0-3.49
			c-0.04-1.35-0.28-2.64-0.12-4c0.13-2.62-0.11-5.29,0.12-7.89c0.03-0.43,0.08-0.87,0.14-1.29c0.31-2.17,1.28-5.43,2.68-6.7
			c0.36-0.85,1.57-1.74,2.18-2.18c-0.54,0.22-1.04,0.55-1.54,0.92C689.08,52.67,689.99,52.21,690.29,51.98z"/>
		
			<linearGradient id="SVGID_00000132078150823544174930000002255845707230391443_" gradientUnits="userSpaceOnUse" x1="682.6376" y1="141.1868" x2="664.0756" y2="143.8063" gradientTransform="matrix(1 0 0 -1 14 269)">
			<stop  offset="0" style="stop-color:#589031"/>
			<stop  offset="1" style="stop-color:#96A460"/>
		</linearGradient>
		<path style="fill:url(#SVGID_00000132078150823544174930000002255845707230391443_);" d="M688.57,56.44
			c-0.52,3.11-0.65,6.29-0.72,9.47c-0.13,5.55-0.13,11.12-0.14,16.68l-0.06,23.63l-0.3,63.43l-0.09,19.94
			c-0.01,1.15-0.14,6.14,0.03,6.91l0.08,0.11l0.02,0.05c-0.17-0.01-0.34,0-0.5,0.01c-0.13-0.59-0.06-3.18-0.07-3.93l-0.1-12.88
			c-0.16-13.04-0.27-26.07-0.33-39.11l0.01-48.1c-0.01-2.25,0.01-4.51,0.04-6.76c0.01-0.95,0.11-1.97,0.05-2.91
			c-0.02-0.33-0.12-0.67-0.19-0.98c0-0.68,0.02-1.34,0.08-2.01c0.24-1.13,0.18-2.61,0.19-3.79l0.04-5.84
			c0.01-1.53,0.14-3.1,0.2-4.63c0.05-1.19,0.03-2.44,0.15-3.62C687.1,60.52,687.62,57.44,688.57,56.44z"/>
		<path class="st9" d="M689.01,55.29c-0.2,1.59-0.49,3.11-0.62,4.72c-0.26,3.14-0.28,6.32-0.3,9.47c-0.03,3.48-0.04,6.95-0.03,10.43
			l-0.05,23.47l-0.27,74.14c0,1.98,0.03,18.52-0.08,18.9c-0.1,0.07-0.19,0.13-0.3,0.18l-0.08-0.11c-0.16-0.78-0.03-5.76-0.03-6.91
			l0.09-19.94l0.3-63.43l0.06-23.63c0.02-5.55,0.01-11.13,0.14-16.68c0.08-3.18,0.21-6.36,0.72-9.47
			C688.7,56.04,688.84,55.66,689.01,55.29z"/>
		
			<linearGradient id="SVGID_00000063596405801559992060000001840407294824124331_" gradientUnits="userSpaceOnUse" x1="695.9769" y1="163.5233" x2="687.6887" y2="167.5304" gradientTransform="matrix(1 0 0 -1 14 269)">
			<stop  offset="0" style="stop-color:#578E34"/>
			<stop  offset="1" style="stop-color:#96BC50"/>
		</linearGradient>
		<path style="fill:url(#SVGID_00000063596405801559992060000001840407294824124331_);" d="M710.08,84.83c0.2-0.31,0.72-0.44,1-0.51
			c-0.2,0.51-0.87,0.84-0.9,1.45c-0.84,1.39-1.31,2.79-1.63,4.53c-0.48,2.63-0.47,5.44-0.6,8.13c-0.25,5.14-0.75,10.37-1.93,15.28
			c-0.24,0.99-0.49,2.07-0.86,2.98c-0.71,2.69-2.17,4.79-3.94,6.23l-0.13-0.27c-0.01-0.19-0.02-0.17,0.07-0.31
			c0.51-0.75,1.13-1.36,1.63-2.12c0.49-0.74,0.83-1.61,1.27-2.39c1.78-4.91,2.52-9.25,2.89-14.69c0.13-1.84,0.23-3.7,0.22-5.55
			c0.09-3.89-0.08-8.13,1.8-11.33C709.29,85.73,709.72,85.32,710.08,84.83z"/>
		<path class="st17" d="M704.05,117.84c0.5-0.11,1.58-4.42,2.04-5.17l-0.04,0.13l0.07-0.07c-0.01,0.79-0.96,3.05-0.98,3.82
			c0,0.05,0,0.1,0,0.16c-0.71,2.69-2.17,4.79-3.94,6.23l-0.13-0.27c-0.01-0.19-0.02-0.17,0.07-0.31c0.51-0.75,1.13-1.36,1.63-2.12
			C703.27,119.49,703.62,118.62,704.05,117.84z"/>
		<path class="st9" d="M710.18,85.77c0.37-0.48,0.72-0.81,1.19-1.1l0.21,0.01c-0.03,0.02-0.07,0.04-0.1,0.06
			c-1.11,0.68-1.97,2.62-2.37,4.13c-0.9,3.42-0.8,8.13-1,11.78c-0.31,5.61-1.35,14.28-3.71,18.91c-0.1,0.2-0.2,0.39-0.31,0.58
			c-0.11,0.19-0.22,0.37-0.34,0.55c-0.12,0.18-0.24,0.35-0.36,0.52c-0.13,0.17-0.25,0.33-0.39,0.49c-0.13,0.16-0.27,0.31-0.41,0.45
			c-0.14,0.14-0.28,0.28-0.43,0.41c-0.15,0.13-0.3,0.26-0.45,0.38s-0.31,0.23-0.46,0.33c-0.22,0.14-0.84,0.62-1.08,0.54
			c0.29-0.38,0.69-0.62,1.04-0.89c1.78-1.43,3.23-3.53,3.94-6.23c0.37-0.91,0.63-1.99,0.86-2.98c1.18-4.91,1.68-10.14,1.93-15.28
			c0.13-2.7,0.12-5.5,0.6-8.13C708.87,88.56,709.34,87.16,710.18,85.77z"/>
		<path class="st17" d="M688.33,54.37c-0.1,0.26-0.21,0.49-0.33,0.73c-0.12,0.17-0.22,0.34-0.32,0.53c-0.69,1.55-1.57,3.84-1.52,5.7
			l0.58,0.26c-0.05,0.42-0.05,0.97-0.22,1.32c-0.17,0.14-0.29,0.11-0.49,0.09c-0.1,0.44-0.05,1.04-0.05,1.51l-0.02,3.71
			c0,0.64,0.06,1.34-0.03,1.97c-0.15,0.05-0.06,0.05-0.2-0.01c-0.17-0.07-0.18-0.04-0.33,0.07c0.13-2.62-0.11-5.29,0.12-7.89
			c0.03-0.43,0.08-0.87,0.14-1.29C685.97,58.9,686.94,55.64,688.33,54.37z"/>
		<path class="st7" d="M688,55.1l0.07,0.18c0.19,0.02,0.35-0.01,0.51,0.14l0.01,0.12c-0.21,0.18-0.66,0.14-0.9,0.09
			C687.78,55.44,687.88,55.28,688,55.1z"/>
		<path class="st18" d="M689.58,58.07c0.13-1.39,0.2-2.76,0.78-3.96c0.17,1.05,0.21,2.18,0.28,3.24c0.43,2.37,0.53,4.96,0.6,7.39
			c0.28,10.47,0.21,20.97,0.21,31.44l-0.07,42.88l-0.11,15.88c-0.02,1.23,0.08,4.98-0.19,5.94c-0.27,0.95-0.01,3.28-0.15,4.47
			l-0.22,18.79c-0.05,3.68-0.16,7.37-0.13,11.05l-0.6,0.24l-0.23-18.81c-0.03-1.85,0.03-3.72-0.04-5.56
			c-0.21-1.3-0.14-3.16-0.17-4.53c-0.07-2.99-0.11-5.99-0.11-8.98l-0.12-28.18l-0.05-44.05c-0.03-5.18-0.03-10.36-0.01-15.54
			C689.25,65.87,689.22,61.96,689.58,58.07z"/>
		<path class="st17" d="M689.9,56.17c0.13,1.67-0.13,3.47-0.14,5.16l-0.05,15.74l0.12,58.18c0.06,8.09,0.07,16.17,0.04,24.26
			c0,2.15,0.17,10.04-0.17,11.55c-0.21-1.3-0.14-3.16-0.17-4.53c-0.07-2.99-0.11-5.99-0.11-8.98l-0.12-28.18l-0.05-44.05
			c-0.03-5.18-0.03-10.36-0.01-15.54c0.01-3.91-0.02-7.82,0.34-11.71l0.13-0.09l0.01,0.04C689.82,57.41,689.81,56.79,689.9,56.17z"
			/>
		<path class="st17" d="M690.63,57.35c0.43,2.37,0.53,4.96,0.6,7.39c0.28,10.47,0.21,20.97,0.21,31.44l-0.07,42.88l-0.11,15.88
			c-0.02,1.23,0.08,4.98-0.19,5.94c-0.27,0.95-0.01,3.28-0.15,4.47c-0.06-1.11,0.02-2.26,0-3.37c-0.06-3.95-0.03-7.9-0.06-11.85
			c-0.08-13.62-0.06-27.23,0.04-40.85l0.02-17.38c0-5.36,0.02-10.72-0.03-16.08l-0.14-11.24C690.71,62.18,690.61,59.76,690.63,57.35
			z"/>
		<path class="st9" d="M691.24,54.23c0.01,0.01,0.02,0.02,0.04,0.04c0.36,0.46,0.61,1.45,0.77,2.07c1.02,3.97,1.1,8,1.27,12.17
			c0.03,0.7,0.37,1.14,0.35,1.84c-0.02,1.42-0.62,2.78-0.56,4.19c0.03,0.81,0.58,1.37,0.63,2.17c0.03,0.51-0.03,1.08-0.04,1.6
			c-0.03,1.11-0.04,2.23-0.06,3.34c-0.05,3.07-0.03,6.15-0.11,9.22c-0.02,0.88-0.47,1.57-0.49,2.42c-0.02,1.02,0.48,1.94,0.47,2.98
			c-0.03,2.73-0.03,5.48-0.11,8.21c-0.03,1.06-0.22,2.13-0.21,3.19c0.01,0.58,0.28,1.13,0.3,1.73c0.05,1.83-0.05,3.7-0.06,5.54
			c-0.02,1.97,0.04,3.95,0.01,5.92c-0.02,0.8-0.34,1.55-0.35,2.36c-0.02,0.96,0.33,1.86,0.34,2.83c0.02,1.21-0.01,2.42,0,3.63
			c0.01,1.64,0.04,3.29-0.01,4.93c-0.03,0.98-0.25,1.95-0.26,2.93c0,0.68,0.17,1.39,0.24,2.07c0.08,0.8,0.07,1.66,0.07,2.46
			c0.01,1.31-0.02,2.63-0.02,3.94c0,0.72,0.05,1.46,0.01,2.17c-0.03,0.72-0.27,1.41-0.27,2.13c0,0.53,0.09,1.08,0.14,1.61
			c0.08,0.96,0.12,1.95,0.12,2.91c0,1.56-0.2,3.08-0.23,4.62c-0.01,1.04,0.25,2.09,0.25,3.16c0,2.09-0.07,4.19-0.09,6.28
			c-0.02,1.72,0.04,3.45,0,5.17c-0.02,0.77-0.17,1.53-0.18,2.3c-0.02,0.95,0.21,1.9,0.22,2.86c0.02,2.32,0.02,4.67-0.02,6.99
			c-0.02,0.85-0.11,1.69-0.11,2.54c0,1.36,0.1,2.73,0.09,4.1c0,0.94,0.11,2.19-0.03,3.09c-0.03,0.2-0.06,0.3-0.18,0.42l-0.11-0.07
			c-0.14-0.28-0.2-0.53-0.21-0.86c-0.07-1.69-0.07-3.49-0.02-5.18c0.02-0.86,0.09-1.72,0.09-2.58l-0.08-20.97l-0.03-63.32
			l0.01-23.65c-0.01-2.72,0.03-5.43-0.03-8.15c-0.05-2.06-0.19-4.13-0.29-6.19c-0.13-2.59-0.21-5.25-0.58-7.8
			C691.74,56.44,691.49,55.34,691.24,54.23z"/>
		
			<linearGradient id="SVGID_00000005972152388124958960000011697763311022382735_" gradientUnits="userSpaceOnUse" x1="692.5112" y1="162.489" x2="695.9528" y2="161.6659" gradientTransform="matrix(1 0 0 -1 14 269)">
			<stop  offset="0" style="stop-color:#364624"/>
			<stop  offset="1" style="stop-color:#49712C"/>
		</linearGradient>
		<path style="fill:url(#SVGID_00000005972152388124958960000011697763311022382735_);" d="M711.28,85.96l0.1-0.13
			c0.05,0.55-0.13,1.21-0.18,1.76c-0.12,1.35-0.21,2.7-0.27,4.06c-0.09,1.96-0.09,3.92-0.19,5.88c-0.36,7.04-1.34,18.42-4.59,24.07
			c-1.26,2.19-3.07,3.92-4.98,4.85c-0.28,0.14-0.61,0.34-0.91,0.38c-0.12,0.02-0.07,0.02-0.19-0.04c0.05-0.19,0.22-0.28,0.36-0.37
			c0.56-0.35,1.14-0.62,1.7-1c0.01-0.21,0-0.49,0.1-0.67c0.3-0.59,0.83-1.1,1.23-1.58c0.68-0.83,1.34-1.73,1.88-2.75
			c0.85-1.63,1.54-3.79,2.04-5.68c0.89-3.31,1.23-6.83,1.58-10.31c0.17-1.74,0.37-3.47,0.46-5.23c0.2-3.7,0.03-8.23,1.09-11.69
			C710.64,86.99,710.9,86.17,711.28,85.96z"/>
		<path class="st9" d="M711.28,85.96l0.1-0.13c0.05,0.55-0.13,1.21-0.18,1.76c-0.12,1.35-0.21,2.7-0.27,4.06
			c-0.09,1.96-0.09,3.92-0.19,5.88c-0.36,7.04-1.34,18.42-4.59,24.07c-1.26,2.19-3.07,3.92-4.98,4.85
			c-0.28,0.14-0.61,0.34-0.91,0.38c-0.12,0.02-0.07,0.02-0.19-0.04c0.05-0.19,0.22-0.28,0.36-0.37c0.56-0.35,1.14-0.62,1.7-1
			c5.49-3.94,6.57-11.51,7.43-19.12c0.3-2.67,0.65-5.39,0.77-8.08C710.49,94.21,710.31,89.79,711.28,85.96z"/>
		<path class="st9" d="M692.8,55.02c0.53,0.34,1.29,1.95,1.58,2.66c0.93,2.24,1.37,4.97,1.5,7.53c0.18,3.68,0.12,7.36,0.14,11.04
			l0.1,20.15l0.08,63.42l-0.01,29.46c0,1.33,0.13,7.65-0.01,8.35c-0.38-0.24-0.26-0.92-0.26-1.44l-0.03-89.48l-0.11-27.21
			l-0.05-8.32c-0.01-2.48,0.01-4.98-0.22-7.45C695.18,60.28,694.33,57.75,692.8,55.02z"/>
		<path class="st9" d="M712.49,85.17c0.34,1.31,0.44,2.77,0.54,4.15c0.14,1.8,0.23,3.65,0.21,5.46c-0.06,6.97-1.28,19.02-3.52,25.32
			c-1.49,4.19-3.87,7.5-7.14,9.01c-0.76,0.35-1.58,0.63-2.39,0.74l-0.07-0.08c0.05-0.17,0.06-0.18,0.18-0.26
			c0.45-0.29,1.01-0.28,1.49-0.49c1.72-0.73,3.86-2.34,5-4.26c0.15-0.68,1.16-2.14,1.51-2.82c1.05-2.02,1.75-4.44,2.22-6.81
			c0.04-0.23,0.15-0.45,0.17-0.67c0.02-0.18,0.01-0.16,0.11-0.28l0-0.2c-0.08-0.17-0.07-0.19-0.22-0.24
			c-0.21,0.18-0.02,0.18-0.04,0.42c-0.01,0.1-0.08,0.26-0.11,0.37c-0.31,1.12-0.6,2.23-0.93,3.34c-0.55,1.88-1.65,4.16-2.66,5.63
			c0.02-0.14,0-0.07,0.08-0.21c1.33-2.31,2.55-5.01,3.18-7.84c0.39-1.75,0.62-3.58,0.87-5.38c0.35-2.53,0.62-5.01,0.83-7.56
			c0.08-1,0.18-2.02,0.21-3.03c0.04-1.33,0.14-2.65,0.18-3.98c0.03-0.75-0.01-1.51,0.04-2.25c0.01-0.17-0.01-0.26,0.08-0.39
			c0.07,0.4,0.01,0.97,0.01,1.39c0,1.44-0.08,2.86-0.13,4.3c-0.03,0.86-0.02,1.73-0.07,2.59c-0.09,1.61-0.26,3.22-0.3,4.83
			c-0.01,0.23-0.03,0.68,0.07,0.86c-0.03-0.39,0.07-0.65,0.11-1.02c0.14-1.28,0.22-2.56,0.31-3.86c0.03-0.48,0.03-1.65,0.12-2.02
			c0.02-0.08,0.07-0.14,0.11-0.21c0.25-3.41,0.19-7.38,0.09-10.81C712.61,87.67,712.49,86.41,712.49,85.17z"/>
		<path class="st17" d="M706.8,124.75c0.15-0.68,1.16-2.14,1.51-2.82c1.05-2.02,1.75-4.44,2.22-6.81c0.04-0.23,0.15-0.45,0.17-0.67
			c0.02-0.18,0.01-0.16,0.11-0.28l0-0.2c-0.08-0.17-0.07-0.19-0.22-0.24c-0.21,0.18-0.02,0.18-0.04,0.42
			c-0.01,0.1-0.08,0.26-0.11,0.37c-0.31,1.12-0.6,2.23-0.93,3.34c-0.55,1.88-1.65,4.16-2.66,5.63c0.02-0.14,0-0.07,0.08-0.21
			c1.33-2.31,2.55-5.01,3.18-7.84c0.39-1.75,0.62-3.58,0.87-5.38c0.35-2.53,0.62-5.01,0.83-7.56c0.08-1,0.18-2.02,0.21-3.03
			c0.04-1.33,0.14-2.65,0.18-3.98c0.03-0.75-0.01-1.51,0.04-2.25c0.01-0.17-0.01-0.26,0.08-0.39c0.07,0.4,0.01,0.97,0.01,1.39
			c0,1.44-0.08,2.86-0.13,4.3c-0.03,0.86-0.02,1.73-0.07,2.59c-0.09,1.61-0.26,3.22-0.3,4.83c-0.01,0.23-0.03,0.68,0.07,0.86
			c-0.03-0.39,0.07-0.65,0.11-1.02c0.14-1.28,0.22-2.56,0.31-3.86c0.03-0.48,0.03-1.65,0.12-2.02c0.02-0.08,0.07-0.14,0.11-0.21
			c-0.12,5.48-1.22,14.05-2.84,19.09c-0.25,0.76-0.53,1.49-0.84,2.2c-0.31,0.71-0.65,1.4-1.02,2.05c-0.3,0.54-0.63,1.16-0.99,1.61
			C706.84,124.7,706.82,124.73,706.8,124.75z"/>
		<path class="st9" d="M713.81,86.21c1.13,1.22,1.67,4.09,1.94,5.92c0.92,6.32-1.12,20.89-2.73,26.97c-0.13,0.5-0.27,0.99-0.42,1.48
			c-0.15,0.49-0.31,0.97-0.48,1.44c-0.17,0.47-0.36,0.94-0.55,1.39c-0.19,0.46-0.4,0.91-0.61,1.35c-1.8,3.69-4.28,6.08-7.41,7.21
			c-1.08,0.39-2.19,0.62-3.28,0.92c-0.06,0-0.14-0.05-0.2-0.08l0.01-0.07c0.28-0.36,0.83-0.42,1.21-0.49
			c1.81-0.35,3.66-1.12,5.26-2.33c3.79-2.86,5.73-8.25,6.88-13.71c0.75-3.54,1.22-7.15,1.64-10.79c0.35-3.09,0.69-6.25,0.69-9.38
			c0-0.68-0.02-1.37-0.07-2.05c-0.05-0.68-0.12-1.36-0.21-2.03C715.15,89.59,714.64,88.27,713.81,86.21z"/>
		
			<linearGradient id="SVGID_00000069395762826614911350000017605235484120757180_" gradientUnits="userSpaceOnUse" x1="617.8521" y1="179.4158" x2="634.344" y2="179.5351" gradientTransform="matrix(1 0 0 -1 14 269)">
			<stop  offset="0" style="stop-color:#325E99"/>
			<stop  offset="1" style="stop-color:#6784AB"/>
		</linearGradient>
		<path style="fill:url(#SVGID_00000069395762826614911350000017605235484120757180_);" d="M632.16,44.38h14.25
			c0.06,0.22,0.11,0.2,0.21,0.37c0.29,0.5,0.39,2.79,0.39,3.45l0.07,0.04c0.06-0.1,0.12-0.21,0.18-0.32
			c0.2,1.84,0.18,3.77,0.15,5.62c-0.02,1.29-0.24,3.18,0.04,4.38c0.15,0.65,0.1,1.7,0.14,2.4c0-0.03,0-0.06,0-0.08
			c0-0.26,0-0.47,0.14-0.67c0.04-0.06,0.07-0.08,0.11-0.14c0.13,0.17,0.13,0.96,0.14,1.25c0.02,0.54,0.02,1.93-0.21,2.34
			c-0.08-0.65-0.09-1.32-0.12-1.98c-0.04,1.09-0.05,2.17-0.08,3.25c-0.02,0.65-0.09,1.3-0.1,1.95c-0.03,1.86,0.01,3.74-0.01,5.6
			c-0.01,0.92-0.09,1.84-0.11,2.76c-0.02,1.06,0.02,2.14,0.06,3.2c0.38-1.05-0.21-4.42,0.13-4.93c0.03,0.13,0.03,0.24,0.03,0.38
			c0,0.14,0,0.18,0.04,0.32c0.13,0.43-0.05,0.94,0.03,1.4c0.13,0.74,0.01,3.3,0.04,4.25c0.02,0.77,0.21,1.48,0.15,2.25
			c-0.02,0.21-0.04,0.42-0.02,0.63l0.01-0.18l0.02,0.18l0.17-0.31c0.13,0.39-0.03,1.53-0.03,2c0.01,1.18,0.03,2.41,0.1,3.58
			c0.03,0.47,0.14,0.98,0.13,1.44c-0.01,0.43-0.14,0.83-0.15,1.25c-0.03,1.23,0.04,2.48,0.01,3.71c-0.02,0.73-0.31,1.48-0.38,2.2
			c-0.1,0.99,0.04,2.07,0.05,3.07c0,0.56-0.12,1.12-0.13,1.69c0,0.65,0.17,1.3,0.24,1.94c0.05,0.41,0.03,0.84,0.02,1.25l-0.09-0.06
			l0.12-0.06l0-0.19c0.1,0.06,0.07,0.02,0.13,0.17c0.28,0.81,0.07,8.33,0.11,9.82c0.01,0.25,0.06,0.43,0.08,0.67
			c0.08,0.72,0.08,1.51,0.12,2.24c0.03,0.61,0.13,1.24,0.11,1.86c0,0.1,0,0.12-0.03,0.21c-0.03,0.09-0.1,0.13-0.16,0.18
			c0.11,0.31,0.32,0.73,0.36,1.06c0.04,0.34,0.02,0.76,0.02,1.1c0.01,1.51-0.08,2.97-0.12,4.47c-0.02,0.89,0.01,1.79-0.03,2.68
			l-0.08,0.17c-0.03,0-0.05,0-0.08,0c-0.11,0-0.06,0-0.16,0.03c-0.05,0.55,0.05,1.11,0,1.65c-0.05,0.6-0.32,0.94-0.18,1.57
			c0.09,0.37,0.1,0.74,0.26,1.07l-0.08,0.18c0.25,0.25,1.75,0.28,2.14,0.34c2.93,0.39,5.88,0.71,8.8,1.28
			c0.15,0.03,0.55,0.04,0.58,0.24c-0.74,0.01-1.6-0.27-2.35-0.39c-2.06-0.33-4.14-0.69-6.21-0.87c-1.32-0.25-2.66-0.36-3.98-0.51
			c-3.13-0.34-6.27-0.65-9.4-0.91c-1.11-0.09-2.28-0.31-3.39-0.25c-0.73-0.09-1.47-0.13-2.2-0.18V44.38z"/>
		
			<linearGradient id="SVGID_00000116227017469734772150000005746244867446011041_" gradientUnits="userSpaceOnUse" x1="735.1569" y1="157.4029" x2="721.1799" y2="157.4022" gradientTransform="matrix(1 0 0 -1 14 269)">
			<stop  offset="0" style="stop-color:#3B5D83"/>
			<stop  offset="1" style="stop-color:#6885A7"/>
		</linearGradient>
		<path style="fill:url(#SVGID_00000116227017469734772150000005746244867446011041_);" d="M736.34,44.38h12.99h0.11v134.43
			l-0.09-0.11c-0.1-2.9-0.02-5.86-0.02-8.77v-16.51l-0.01-16.36c-0.06-1.22-0.03-2.45-0.02-3.67c-1.5,0.08-2.99,0.13-4.47,0.48
			c-1.64,0.38-3.22,1.09-4.79,1.82c-2.41,1.12-4.77,2.39-7.15,3.63c-0.88,0.47-1.75,0.95-2.62,1.44c-0.48,0.27-0.99,0.59-1.49,0.78
			c0.11-0.56,6.24-3.18,6.89-3.96c0.02-0.03,0.05-0.04,0.06-0.08c0-0.02-0.36-2.26-0.31-2.81c0.08-0.9-0.03-1-0.08-1.8
			c-0.05-0.84-0.05-1.72-0.06-2.56c-0.01-0.56,0.02-1.11,0.01-1.67c-0.01-0.57-0.06-1.16-0.03-1.72c0.01-0.28,0.08-0.52,0.11-0.79
			c0.05-0.42-0.03-0.99-0.04-1.43c-0.02-0.83,0.07-1.66,0.04-2.48c-0.02-0.6-0.19-1.17-0.18-1.77c0.02-0.76,0.05-1.54,0.12-2.29
			c0.03-0.28,0.13-0.57,0.14-0.83c0.02-0.55-0.08-1.12-0.06-1.68l0.19-5.89c0.01-0.44,0.08-0.89,0.08-1.32
			c0-0.24-0.13-0.44-0.14-0.68c-0.02-0.53,0.03-1.07,0.03-1.6c-0.01-0.8-0.06-1.6-0.07-2.39c-0.01-0.68,0.03-1.36,0.03-2.04
			c0-0.99-0.06-1.98-0.05-2.97c0.01-0.8,0.22-1.57,0.29-2.36c0.09-0.92,0.03-1.97,0.03-2.9c-0.02-1.82-0.18-3.63-0.21-5.44
			l-0.31-15.45c-0.03-2.03,0.04-4.06,0.04-6.09c0-1.79-0.09-3.58-0.07-5.37c0.01-1.12,0.14-2.23,0.15-3.36
			c0.01-0.85-0.12-1.68-0.1-2.52c0.01-0.64,0.11-1.29,0.14-1.94c0.03-0.64-0.01-1.29,0.04-1.92c0.04-0.47,0.19-0.91,0.21-1.39
			c0.04-1.13-0.22-2.28-0.12-3.41C735.57,45.94,735.92,44.82,736.34,44.38z"/>
		<path class="st9" d="M749.33,44.38h0.11v134.43l-0.09-0.11c-0.1-2.9-0.02-5.86-0.02-8.77v-16.51l-0.01-16.36
			c0.11-3.43,0.01-6.93,0.01-10.37l0-20.34L749.33,44.38z"/>
		<path class="st12" d="M682.47,95.13l-0.13-0.07l0.06-0.03c-0.01-0.09-0.01-0.03,0.01-0.18l0.01-0.13l-0.08-0.05
			c0.15-0.7-0.01-4.33-0.01-5.32c0.01-5.34,0-10.68-0.05-16.02c-0.01-1.67-0.02-3.34-0.02-5.02c0-5.01,0.22-9.01,2.93-12.82
			c1.17-1.64,3.39-3.5,5.11-3.52c-0.31,0.22-1.21,0.68-1.31,1.12c0.49-0.37,1-0.7,1.54-0.92c-0.61,0.45-1.82,1.34-2.18,2.18
			c-1.4,1.27-2.36,4.53-2.68,6.7c-0.06,0.42-0.11,0.86-0.14,1.29c-0.22,2.61,0.01,5.28-0.12,7.89c-0.17,1.36,0.08,2.66,0.12,4
			c0.03,1.16-0.03,2.33,0,3.49c0.03,0.61,0.02,1.22,0.02,1.83c0.17,0.22,0.3,0.44,0.56,0.43c0.09,0,0.18-0.01,0.26-0.03
			c-0.06,0.67-0.07,1.33-0.08,2.01c0.07,0.31,0.17,0.65,0.19,0.98c0.06,0.94-0.04,1.96-0.05,2.91c-0.03,2.25-0.04,4.51-0.04,6.76
			l-0.01,48.1c0.06,13.04,0.17,26.07,0.33,39.11l0.1,12.88c0.01,0.76-0.06,3.35,0.07,3.93c0.17-0.01,0.34-0.02,0.5-0.01l-0.01,0.07
			c-0.68,0.23-1.39,0.63-2.09,0.73c-0.69,0.09-2.19-0.54-2.99-0.69c-0.04-3.17-0.02-6.35-0.02-9.52l0-17.65
			c-0.01-1.05-0.01-2.11,0.01-3.16c0.1-1.23,0.02-2.6,0.02-3.84c0-3-0.04-6.02,0.02-9.01c-0.44-0.25-0.87-0.55-1.3-0.83
			c-0.95-0.83-1.93-1.56-2.84-2.47c-2.21-2.18-4.13-5.31-5.51-8.5c-0.63-1.46-1.09-3.1-1.78-4.5c-0.01-0.02-0.02-0.05-0.04-0.07
			c-3.06-8.61-4.34-21.39-4.26-30.98c0.02-1.92-0.01-3.92,0.28-5.8c0.26-1.64,0.84-3.7,1.92-4.65c0.01-0.02,0.01-0.04,0.02-0.05
			c0.33-0.49,1.21-1.19,1.68-1.35c1.15-0.63,2.41-0.53,3.54,0.15c1.43,0.86,2.47,2.59,3.03,4.56c0.74,2.62,0.47,6.46,0.54,9.3
			c0.17,6.74,1.16,17,3.28,23.05c0.43,1.23,0.99,2.37,1.61,3.43l0.07-12.3c-0.01-0.31,0-0.62,0.01-0.93l0.1-0.11
			c0.16-0.51-0.09-1.28-0.08-1.85l0.06,0.1c0.29-0.39-0.07-6.44,0.13-7.58c0.02-0.02,0.04-0.04,0.05-0.07
			c0.06-0.14,0.08-0.32,0.07-0.47c-0.02-0.28-0.17-0.49-0.32-0.66c-0.01-0.02-0.03-0.03-0.04-0.05l0.01-0.21l0.07-0.04
			c0.17-0.48,0.06-4.99,0.04-5.83c-0.01-0.45-0.1-1.24,0.01-1.65c-0.02-0.03-0.04-0.06-0.07-0.09c-0.18-0.29-0.11-0.71-0.09-1.06
			c0.01-1.41-0.1-5.27,0.1-6.43C682.58,95.47,682.52,95.3,682.47,95.13z"/>
		
			<linearGradient id="SVGID_00000065788158898281119820000004975050406768799647_" gradientUnits="userSpaceOnUse" x1="693.1874" y1="134.8911" x2="644.5703" y2="158.3059" gradientTransform="matrix(1 0 0 -1 14 269)">
			<stop  offset="0" style="stop-color:#5D8A2F"/>
			<stop  offset="1" style="stop-color:#A6BB72"/>
		</linearGradient>
		<path style="fill:url(#SVGID_00000065788158898281119820000004975050406768799647_);" d="M682.47,95.13l-0.13-0.07l0.06-0.03
			c-0.01-0.09-0.01-0.03,0.01-0.18l0.01-0.13l-0.08-0.05c0.15-0.7-0.01-4.33-0.01-5.32c0.01-5.34,0-10.68-0.05-16.02
			c-0.01-1.67-0.02-3.34-0.02-5.02c0-5.01,0.22-9.01,2.93-12.82c1.17-1.64,3.39-3.5,5.11-3.52c-0.31,0.22-1.21,0.68-1.31,1.12
			c0.49-0.37,1-0.7,1.54-0.92c-0.61,0.45-1.82,1.34-2.18,2.18c-1.4,1.27-2.36,4.53-2.68,6.7c-0.06,0.42-0.11,0.86-0.14,1.29
			c-0.22,2.61,0.01,5.28-0.12,7.89c-0.17,1.36,0.08,2.66,0.12,4c0.03,1.16-0.03,2.33,0,3.49c0.03,0.61,0.02,1.22,0.02,1.83
			c0.17,0.22,0.3,0.44,0.56,0.43c0.09,0,0.18-0.01,0.26-0.03c-0.06,0.67-0.07,1.33-0.08,2.01c-0.15-0.11-0.23-0.23-0.4-0.15
			c-0.14,0.07-0.26,0.22-0.4,0.28c-0.05,0.29-0.11,0.58-0.16,0.87c-0.05,0.6,0.16,1.1,0.15,1.68c-0.01,0.94,0.02,1.88-0.01,2.82
			c-0.05,2.24,0.03,4.48,0.05,6.72c0.01,1.83-0.04,3.68-0.07,5.52c-0.22,22.17-0.33,44.33-0.34,66.5l0.01,20.19
			c0.03,2.56,0.04,5.12,0.04,7.68c-0.01,1.04,0.05,2.15-0.06,3.19l-0.06,0l0.01,0.08c-0.15,0.01-0.17,0.01-0.3-0.09
			c-0.08-0.31-0.15-11.58-0.15-12.81l-0.16-0.19c-0.26-1.01-0.18-3.34-0.18-4.48l-0.89-32.38l-0.23-9.33
			c-0.04-1.24,0.01-2.67-0.18-3.87c-0.09-0.07-0.15-0.14-0.22-0.25c-0.06-2.88-0.11-5.75-0.11-8.64c0-0.97-0.09-2.09,0-3.04
			c0-0.04,0.01-0.08,0.01-0.12l-0.06-0.1l0.02,0c-0.02,0.18-0.04,0.35-0.06,0.53c-0.01-0.31,0-0.62,0.01-0.93l0.1-0.11
			c0.16-0.51-0.09-1.28-0.08-1.85l0.06,0.1c0.29-0.39-0.07-6.44,0.13-7.58c0.02-0.02,0.04-0.04,0.05-0.07
			c0.06-0.14,0.08-0.32,0.07-0.47c-0.02-0.28-0.17-0.49-0.32-0.66c-0.01-0.02-0.03-0.03-0.04-0.05l0.01-0.21l0.07-0.04
			c0.17-0.48,0.06-4.99,0.04-5.83c-0.01-0.45-0.1-1.24,0.01-1.65c-0.02-0.03-0.04-0.06-0.07-0.09c-0.18-0.29-0.11-0.71-0.09-1.06
			c0.01-1.41-0.1-5.27,0.1-6.43C682.58,95.47,682.52,95.3,682.47,95.13z"/>
		<path class="st9" d="M688.98,53.11c0.49-0.37,1-0.7,1.54-0.92c-0.61,0.45-1.82,1.34-2.18,2.18c-1.4,1.27-2.36,4.53-2.68,6.7
			c-0.06,0.42-0.11,0.86-0.14,1.29c-0.22,2.61,0.01,5.28-0.12,7.89c-0.17,1.36,0.08,2.66,0.12,4c0.03,1.16-0.03,2.33,0,3.49
			c0.03,0.61,0.02,1.22,0.02,1.83c0.17,0.22,0.3,0.44,0.56,0.43c0.09,0,0.18-0.01,0.26-0.03c-0.06,0.67-0.07,1.33-0.08,2.01
			c-0.15-0.11-0.23-0.23-0.4-0.15c-0.14,0.07-0.26,0.22-0.4,0.28c-0.05,0.29-0.11,0.58-0.16,0.87c-0.05,0.6,0.16,1.1,0.15,1.68
			c-0.01,0.94,0.02,1.88-0.01,2.82c-0.05,2.24,0.03,4.48,0.05,6.72c0.01,1.83-0.04,3.68-0.07,5.52c-0.22,22.17-0.33,44.33-0.34,66.5
			l0.01,20.19c0.03,2.56,0.04,5.12,0.04,7.68c-0.01,1.04,0.05,2.15-0.06,3.19l-0.06,0l0.01,0.08c-0.15,0.01-0.17,0.01-0.3-0.09
			c-0.08-0.31-0.15-11.58-0.15-12.81c0.01-0.39,0.01-0.77,0.01-1.16c0.08-0.87,0.04-1.81,0.04-2.69l0-4.39
			c0.02-5.53,0.01-11.08,0.07-16.61l0.36-60.64c0.05-5.42-0.02-10.84,0.1-16.26l-0.02-12.96c0-2.2-0.05-4.42,0.08-6.61
			c0.16-2.72,0.86-5.84,2.14-7.97C687.86,54.4,688.43,53.75,688.98,53.11z"/>
		<path class="st17" d="M685.52,77.75c0.03,0.61,0.02,1.22,0.02,1.83c0.17,0.22,0.3,0.44,0.56,0.43c0.09,0,0.18-0.01,0.26-0.03
			c-0.06,0.67-0.07,1.33-0.08,2.01c-0.15-0.11-0.23-0.23-0.4-0.15c-0.14,0.07-0.26,0.22-0.4,0.28
			C685.48,80.67,685.43,79.19,685.52,77.75z"/>
		<path class="st17" d="M684.27,179.78c0.26,0.65,0.02,1.29,0.15,1.95c0.14-0.35,0.14-0.89,0.16-1.28c0,0.93-0.04,1.93,0.04,2.86
			c0,0.39,0,0.77-0.01,1.16l-0.16-0.19C684.19,183.26,684.27,180.93,684.27,179.78z"/>
		<path class="st12" d="M682.52,102.08c0.17,0.1,0.25,0.12,0.32,0.38c0.06,0.22,0.01,0.41-0.04,0.62l-0.12,0.15
			c-0.02-0.03-0.04-0.06-0.07-0.09C682.43,102.85,682.5,102.43,682.52,102.08z"/>
		<path class="st12" d="M682.47,95.13c0.01-0.22,0-0.25,0.1-0.41c0.1,0.03,0.12,0,0.19,0.13c0.06,0.12,0.09,0.21,0.08,0.36
			c-0.02,0.2-0.1,0.3-0.21,0.43C682.58,95.47,682.52,95.3,682.47,95.13z"/>
		<path class="st18" d="M669,103.33c0.09-2.52,0.81-6.36,2.08-8.3c-0.05,0.34-0.1,0.67-0.2,0.99l-0.1,0.06
			c-0.22,0.86-0.33,2.22-0.31,3.13c-0.09,2.89,0.02,5.79,0.13,8.68c0.28,7.14,0.91,13.83,2.48,20.68c1.08,4.72,2.44,9.06,4.93,12.75
			l0.13,0.19l-0.01,0.06c-0.32-0.28-0.51-0.76-0.83-1.03c-0.13,0.04-0.08,0-0.17,0.11c-0.68-0.78-1.22-1.91-1.75-2.89
			c-3.49-6.48-5.16-14.72-5.81-22.62c-0.13-1.54-0.27-3.1-0.32-4.65c-0.04-1.04,0.09-2.31-0.08-3.32c-0.01-0.05-0.02-0.1-0.03-0.15
			c-0.14-0.08-0.25-0.17-0.37-0.29c-0.1-0.1-0.12-0.14-0.25-0.16l-0.12,0.2c-0.07-0.07-0.16-0.14-0.22-0.23
			c-0.12-0.18-0.13-0.38-0.14-0.61l0.3-0.06c0.28-0.06,0.49-0.09,0.78-0.02c0.11-0.22,0.19-0.47,0.23-0.73
			C669.47,104.44,669.26,103.9,669,103.33z"/>
		<path class="st18" d="M670.5,94.38c0.18-0.05,0.38-0.13,0.57-0.11c-2.12,2.49-2.5,6.06-2.92,9.61c0.08,0.11,0.11,0.16,0.16,0.3
			c0.03,0.11,0.1,0.21,0.14,0.31c-0.18,0.41-0.38,0.81-0.45,1.28c-0.03,0.06-0.07,0.11-0.08,0.18c-0.02,0.05,0.16,4.2,0.2,4.5
			c0,1.73,0.18,3.5,0.31,5.22c0.52,6.87,1.57,14.36,3.89,20.54c0.37,0.98,0.81,1.9,1.24,2.83l-0.05,0l0.08,0.07
			c-0.07-0.02-0.14-0.05-0.21-0.07c-0.02-0.02-0.04-0.03-0.06-0.06c-0.44-0.57-1.05-2.32-1.35-3.09
			c-2.97-7.52-4.77-17.38-5.13-25.89c-0.13-3.2-0.35-8.59,0.57-11.47c0.34-1.06,0.85-1.91,1.41-2.76c0.01-0.02,0.01-0.04,0.02-0.05
			C669.15,95.23,670.03,94.54,670.5,94.38z"/>
		<path class="st9" d="M668.11,110.45c-0.04-0.3-0.22-4.45-0.2-4.5c0.02-0.07,0.06-0.12,0.08-0.18l0.06,0.17
			c0.01,0.23,0.02,0.42,0.14,0.61c0.06,0.09,0.15,0.17,0.22,0.23c-0.24,0.41-0.2,0.8-0.19,1.3c0.51,11.1,1.62,23.32,6.6,32.5
			c0.77,1.43,1.6,2.79,2.58,3.97c1.04,1.26,2.2,2.43,3.35,3.51c0.34,0.32,1.45,0.85,1.55,1.35c-0.04,0.08-0.05,0.15-0.14,0.16
			c-0.27,0.02-0.77-0.46-1.02-0.64c-2.15-1.6-4.02-3.56-5.66-6.06c-0.77-1.17-1.56-2.48-2.14-3.83c0.07,0.02,0.14,0.05,0.21,0.07
			l-0.08-0.07l0.05,0c-0.43-0.93-0.87-1.85-1.24-2.83c-2.32-6.18-3.37-13.68-3.89-20.54C668.29,113.95,668.11,112.18,668.11,110.45z
			"/>
		<path class="st9" d="M670.47,99.21c-0.02-0.91,0.09-2.27,0.31-3.13l0.1-0.06c-0.16,1.79-0.21,3.56-0.21,5.36
			c0.08,9.32,0.65,18.64,2.79,27.54c0.71,2.95,1.61,5.95,2.83,8.59c0.88,1.9,1.98,3.63,3.15,5.19c0.27,0.37,0.56,0.72,0.86,1.05
			c0.3,0.33,0.61,0.64,0.93,0.93c0.31,0.28,0.68,0.51,0.97,0.83c0.11,0.12,0.17,0.23,0.22,0.41c-0.02,0.13-0.01,0.18-0.09,0.26
			c-0.33-0.13-0.65-0.47-0.94-0.72c-1.58-1.38-2.96-2.96-4.25-4.83c0.09-0.11,0.03-0.07,0.17-0.11c0.33,0.27,0.51,0.75,0.83,1.03
			l0.01-0.06l-0.13-0.19c-2.49-3.69-3.85-8.03-4.93-12.75c-1.56-6.85-2.2-13.54-2.48-20.68C670.49,105,670.38,102.11,670.47,99.21z"
			/>
		<path class="st17" d="M685.47,84.66l0.52-0.01c0.12,0.31-0.17,1.77-0.25,2.18c-0.05,0.28-0.13,0.44-0.28,0.65
			C685.48,86.54,685.46,85.6,685.47,84.66z"/>
		<path class="st18" d="M671.58,94.76c0.43,1.75,0.64,3.57,0.87,5.38c0.25,1.93,0.48,3.86,0.64,5.81c0.33,4.07,0.5,8.16,1.01,12.2
			c0.36,2.89,0.88,5.71,1.43,8.53c0.19,0.98,0.65,2.59,0.74,3.48c0.17,0.62,0.59,1.79,0.65,2.39c1.03,2.78,2.25,5.04,3.89,7.2
			c0.49,0.64,1.26,1.24,1.61,2l-0.07,0.12l0.11,0.02l-0.09,0.23c-0.55,0.08-1.45-1.13-1.87-1.59c-1.12-1.22-2.01-2.7-2.84-4.29
			c-0.26-0.44-0.49-0.93-0.71-1.41c-0.78-1.7-1.36-3.54-1.89-5.4c-2.34-8.26-3.03-17.21-3.34-25.99c-0.05-1.39-0.3-4.73-0.1-5.94
			c-0.04-0.45-0.06-0.91-0.07-1.37S671.56,95.22,671.58,94.76z"/>
		<path class="st9" d="M671.62,97.5c0.22,0.67,0.56,10.03,0.67,11.63c0.42,6.54,1.49,15.22,3.47,21.19c0.3,0.41,0.43,1.07,0.63,1.58
			l0.09-0.01c0.23-0.56-0.38-1.16-0.22-1.71c0.17,0.62,0.59,1.79,0.65,2.39c1.03,2.78,2.25,5.04,3.89,7.2
			c0.49,0.64,1.26,1.24,1.61,2l-0.07,0.12l0.11,0.02l-0.09,0.23c-0.55,0.08-1.45-1.13-1.87-1.59c-1.12-1.22-2.01-2.7-2.84-4.29
			c-0.26-0.44-0.49-0.93-0.71-1.41c-0.78-1.7-1.36-3.54-1.89-5.4c-2.34-8.26-3.03-17.21-3.34-25.99
			C671.67,102.06,671.42,98.71,671.62,97.5z"/>
		<path class="st5" d="M675.76,130.32c0.3,0.41,0.43,1.07,0.63,1.58l0.09-0.01c0.23-0.56-0.38-1.16-0.22-1.71
			c0.17,0.62,0.59,1.79,0.65,2.39c-0.09,0.26-0.06,0.49,0.02,0.76c0.1,0.37,0.35,0.85,0.37,1.23
			C677,134.27,675.91,130.93,675.76,130.32z"/>
		<path class="st18" d="M672.42,95.19c0.47,0.57,1.18,2.46,1.41,3.3c1.45,4.41,1.59,8.67,2.01,13.36c0.6,6.7,1.47,13.56,3.68,19.66
			c0.44,1.22,1.06,2.49,1.69,3.55c0.3,0.5,0.66,0.94,0.91,1.5c-0.44-0.44-0.81-1.12-1.15-1.7c-1.91-3.27-3.01-7.29-3.89-11.25
			c-0.41-1.06-0.78-3.49-0.9-4.7c-0.31-1.13-0.54-3.62-0.61-4.86c-0.16-0.96-0.22-2-0.31-2.99c-0.12-1.33-0.25-2.66-0.33-3.99
			c-0.21-0.71-0.34-2.86-0.46-3.77C674.08,100.44,673.35,97.78,672.42,95.19z"/>
		<path class="st9" d="M675.22,107.38c-0.02-1.65-0.29-3.74-0.6-5.33c-0.17-0.88-0.84-2.77-0.81-3.56
			c1.45,4.41,1.59,8.67,2.01,13.36c0.6,6.7,1.47,13.56,3.68,19.66c0.44,1.22,1.06,2.49,1.69,3.55c0.3,0.5,0.66,0.94,0.91,1.5
			c-0.44-0.44-0.81-1.12-1.15-1.7c-1.91-3.27-3.01-7.29-3.89-11.25c0.09-0.69-0.49-3.63-0.64-4.48l-0.74-6.52
			C675.48,110.87,675.46,109.08,675.22,107.38z"/>
		<path class="st12" d="M706.93,98.65c0.03-3.15,0-6.53,0.77-9.53c0.43-1.67,1.17-3.49,2.38-4.3c-0.36,0.49-0.79,0.9-1.11,1.44
			c-1.89,3.21-1.72,7.45-1.8,11.33c-0.04,0.26-0.05,0.51-0.07,0.78c0,0.11,0,0.07-0.05,0.17C707.02,98.58,706.96,98.61,706.93,98.65
			z"/>
		<path class="st12" d="M682.78,112.2c-0.07-0.07-0.15-0.14-0.2-0.22c-0.24-0.38-0.16-7.28-0.11-8.06l0.04,0.04
			c0.09,2.26-0.05,4.54,0.03,6.8l-0.01,0.21c0.01,0.02,0.03,0.03,0.04,0.05c0.15,0.17,0.31,0.37,0.32,0.66
			c0.01,0.16-0.01,0.34-0.07,0.47C682.82,112.16,682.8,112.18,682.78,112.2z"/>
		<path class="st12" d="M682.58,121.65c-0.06-0.16-0.11-0.3-0.12-0.48c-0.05-0.78,0.04-1.62,0.05-2.41
			c0.02-1.86-0.01-3.72,0.02-5.58c0.01,2.17,0.06,4.33,0.08,6.5c-0.01,0.58,0.23,1.35,0.08,1.85L682.58,121.65z"/>
		<path class="st23" d="M647.67,68.71c0.11,0.28,0.06,0.77,0.06,1.1C647.62,69.52,647.67,69.03,647.67,68.71z"/>
		<path class="st23" d="M647.67,64.24c0.09,0.19,0.07,0.63,0.09,0.86c-0.01-0.01-0.02-0.02-0.02-0.03
			C647.63,64.89,647.67,64.47,647.67,64.24z"/>
	</g>
</g>
</svg>
